<mxfile host="app.diagrams.net" agent="Mozilla/5.0 (Macintosh; Intel Mac OS X 10_15_7) AppleWebKit/537.36 (KHTML, like Gecko) Chrome/137.0.0.0 Safari/537.36" version="27.1.4">
  <diagram id="C5RBs43oDa-KdzZeNtuy" name="Page-1">
    <mxGraphModel dx="1170" dy="867" grid="1" gridSize="10" guides="1" tooltips="1" connect="1" arrows="1" fold="1" page="1" pageScale="1" pageWidth="827" pageHeight="1169" math="0" shadow="0">
      <root>
        <mxCell id="WIyWlLk6GJQsqaUBKTNV-0" />
        <mxCell id="WIyWlLk6GJQsqaUBKTNV-1" parent="WIyWlLk6GJQsqaUBKTNV-0" />
        <mxCell id="SJAbhvmzXAdhwkTG5RAE-31" value="" style="rounded=0;whiteSpace=wrap;html=1;fillColor=none;" vertex="1" parent="WIyWlLk6GJQsqaUBKTNV-1">
          <mxGeometry x="60" y="300" width="721" height="230" as="geometry" />
        </mxCell>
        <mxCell id="SJAbhvmzXAdhwkTG5RAE-12" style="edgeStyle=orthogonalEdgeStyle;rounded=0;orthogonalLoop=1;jettySize=auto;html=1;entryX=0.5;entryY=0;entryDx=0;entryDy=0;" edge="1" parent="WIyWlLk6GJQsqaUBKTNV-1" source="WIyWlLk6GJQsqaUBKTNV-3" target="SJAbhvmzXAdhwkTG5RAE-0">
          <mxGeometry relative="1" as="geometry" />
        </mxCell>
        <mxCell id="WIyWlLk6GJQsqaUBKTNV-3" value="&lt;font face=&quot;libertine&quot;&gt;Syntax rules&lt;/font&gt;" style="rounded=1;whiteSpace=wrap;html=1;fontSize=12;glass=0;strokeWidth=1;shadow=0;" parent="WIyWlLk6GJQsqaUBKTNV-1" vertex="1">
          <mxGeometry x="360" y="100" width="121" height="40" as="geometry" />
        </mxCell>
        <mxCell id="SJAbhvmzXAdhwkTG5RAE-15" style="edgeStyle=orthogonalEdgeStyle;rounded=0;orthogonalLoop=1;jettySize=auto;html=1;entryX=0.5;entryY=0;entryDx=0;entryDy=0;" edge="1" parent="WIyWlLk6GJQsqaUBKTNV-1" source="SJAbhvmzXAdhwkTG5RAE-0" target="SJAbhvmzXAdhwkTG5RAE-1">
          <mxGeometry relative="1" as="geometry" />
        </mxCell>
        <mxCell id="SJAbhvmzXAdhwkTG5RAE-16" style="edgeStyle=orthogonalEdgeStyle;rounded=0;orthogonalLoop=1;jettySize=auto;html=1;entryX=0.5;entryY=0;entryDx=0;entryDy=0;" edge="1" parent="WIyWlLk6GJQsqaUBKTNV-1" source="SJAbhvmzXAdhwkTG5RAE-0" target="SJAbhvmzXAdhwkTG5RAE-2">
          <mxGeometry relative="1" as="geometry" />
        </mxCell>
        <mxCell id="SJAbhvmzXAdhwkTG5RAE-0" value="Token[]" style="rounded=1;whiteSpace=wrap;html=1;fontSize=12;glass=0;strokeWidth=1;shadow=0;fontFamily=NewComputerModernMono10;" vertex="1" parent="WIyWlLk6GJQsqaUBKTNV-1">
          <mxGeometry x="360" y="180" width="121" height="40" as="geometry" />
        </mxCell>
        <mxCell id="SJAbhvmzXAdhwkTG5RAE-45" style="edgeStyle=orthogonalEdgeStyle;rounded=0;orthogonalLoop=1;jettySize=auto;html=1;exitX=0.5;exitY=1;exitDx=0;exitDy=0;endArrow=none;startFill=0;" edge="1" parent="WIyWlLk6GJQsqaUBKTNV-1" source="SJAbhvmzXAdhwkTG5RAE-1">
          <mxGeometry relative="1" as="geometry">
            <mxPoint x="159.9999999999999" y="380" as="targetPoint" />
            <mxPoint x="260" y="270" as="sourcePoint" />
            <Array as="points">
              <mxPoint x="260" y="380" />
            </Array>
          </mxGeometry>
        </mxCell>
        <mxCell id="SJAbhvmzXAdhwkTG5RAE-1" value="&lt;font&gt;Term parser&lt;/font&gt;" style="rounded=1;whiteSpace=wrap;html=1;fontSize=12;glass=0;strokeWidth=1;shadow=0;fontFamily=libertine;" vertex="1" parent="WIyWlLk6GJQsqaUBKTNV-1">
          <mxGeometry x="200" y="240" width="121" height="40" as="geometry" />
        </mxCell>
        <mxCell id="SJAbhvmzXAdhwkTG5RAE-46" style="edgeStyle=orthogonalEdgeStyle;rounded=0;orthogonalLoop=1;jettySize=auto;html=1;endArrow=none;startFill=0;exitX=0.5;exitY=1;exitDx=0;exitDy=0;" edge="1" parent="WIyWlLk6GJQsqaUBKTNV-1" source="SJAbhvmzXAdhwkTG5RAE-2">
          <mxGeometry relative="1" as="geometry">
            <mxPoint x="680" y="380" as="targetPoint" />
            <mxPoint x="579.9999999999998" y="270" as="sourcePoint" />
            <Array as="points">
              <mxPoint x="580" y="380" />
            </Array>
          </mxGeometry>
        </mxCell>
        <mxCell id="SJAbhvmzXAdhwkTG5RAE-2" value="Inference rule parser" style="rounded=1;whiteSpace=wrap;html=1;fontSize=12;glass=0;strokeWidth=1;shadow=0;fontFamily=libertine;" vertex="1" parent="WIyWlLk6GJQsqaUBKTNV-1">
          <mxGeometry x="520" y="240" width="121" height="40" as="geometry" />
        </mxCell>
        <mxCell id="SJAbhvmzXAdhwkTG5RAE-41" style="edgeStyle=orthogonalEdgeStyle;rounded=0;orthogonalLoop=1;jettySize=auto;html=1;entryX=0.5;entryY=0;entryDx=0;entryDy=0;" edge="1" parent="WIyWlLk6GJQsqaUBKTNV-1" source="SJAbhvmzXAdhwkTG5RAE-3" target="SJAbhvmzXAdhwkTG5RAE-11">
          <mxGeometry relative="1" as="geometry" />
        </mxCell>
        <mxCell id="SJAbhvmzXAdhwkTG5RAE-3" value="&lt;font&gt;Inference rule statement&lt;/font&gt;" style="rounded=1;whiteSpace=wrap;html=1;fontSize=12;glass=0;strokeWidth=1;shadow=0;fontFamily=libertine;" vertex="1" parent="WIyWlLk6GJQsqaUBKTNV-1">
          <mxGeometry x="600" y="320" width="161" height="40" as="geometry" />
        </mxCell>
        <mxCell id="SJAbhvmzXAdhwkTG5RAE-39" style="edgeStyle=orthogonalEdgeStyle;rounded=0;orthogonalLoop=1;jettySize=auto;html=1;" edge="1" parent="WIyWlLk6GJQsqaUBKTNV-1" source="SJAbhvmzXAdhwkTG5RAE-4" target="SJAbhvmzXAdhwkTG5RAE-10">
          <mxGeometry relative="1" as="geometry" />
        </mxCell>
        <mxCell id="SJAbhvmzXAdhwkTG5RAE-4" value="&lt;font&gt;User-inputted statement&lt;/font&gt;" style="rounded=1;whiteSpace=wrap;html=1;fontSize=12;glass=0;strokeWidth=1;shadow=0;fontFamily=libertine;" vertex="1" parent="WIyWlLk6GJQsqaUBKTNV-1">
          <mxGeometry x="80" y="320" width="161" height="40" as="geometry" />
        </mxCell>
        <mxCell id="SJAbhvmzXAdhwkTG5RAE-40" style="edgeStyle=orthogonalEdgeStyle;rounded=0;orthogonalLoop=1;jettySize=auto;html=1;entryX=0;entryY=0.5;entryDx=0;entryDy=0;" edge="1" parent="WIyWlLk6GJQsqaUBKTNV-1" source="SJAbhvmzXAdhwkTG5RAE-10" target="SJAbhvmzXAdhwkTG5RAE-32">
          <mxGeometry relative="1" as="geometry" />
        </mxCell>
        <mxCell id="SJAbhvmzXAdhwkTG5RAE-10" value="&lt;font face=&quot;NewComputerModernMono10&quot;&gt;AST[]&lt;/font&gt;" style="rounded=1;whiteSpace=wrap;html=1;fontSize=12;glass=0;strokeWidth=1;shadow=0;fontFamily=libertine;" vertex="1" parent="WIyWlLk6GJQsqaUBKTNV-1">
          <mxGeometry x="100" y="400" width="121" height="40" as="geometry" />
        </mxCell>
        <mxCell id="SJAbhvmzXAdhwkTG5RAE-43" style="edgeStyle=orthogonalEdgeStyle;rounded=0;orthogonalLoop=1;jettySize=auto;html=1;entryX=1;entryY=0.5;entryDx=0;entryDy=0;" edge="1" parent="WIyWlLk6GJQsqaUBKTNV-1" source="SJAbhvmzXAdhwkTG5RAE-11" target="SJAbhvmzXAdhwkTG5RAE-32">
          <mxGeometry relative="1" as="geometry" />
        </mxCell>
        <mxCell id="SJAbhvmzXAdhwkTG5RAE-11" value="&lt;font face=&quot;NewComputerModernMono10&quot;&gt;Matchable[]&lt;/font&gt;" style="rounded=1;whiteSpace=wrap;html=1;fontSize=12;glass=0;strokeWidth=1;shadow=0;fontFamily=libertine;" vertex="1" parent="WIyWlLk6GJQsqaUBKTNV-1">
          <mxGeometry x="620" y="400" width="121" height="40" as="geometry" />
        </mxCell>
        <mxCell id="SJAbhvmzXAdhwkTG5RAE-38" style="edgeStyle=orthogonalEdgeStyle;rounded=0;orthogonalLoop=1;jettySize=auto;html=1;entryX=0.5;entryY=0;entryDx=0;entryDy=0;exitX=0;exitY=0.5;exitDx=0;exitDy=0;" edge="1" parent="WIyWlLk6GJQsqaUBKTNV-1" source="SJAbhvmzXAdhwkTG5RAE-21" target="SJAbhvmzXAdhwkTG5RAE-32">
          <mxGeometry relative="1" as="geometry">
            <Array as="points">
              <mxPoint x="320" y="500" />
              <mxPoint x="300" y="500" />
              <mxPoint x="300" y="370" />
              <mxPoint x="420" y="370" />
            </Array>
          </mxGeometry>
        </mxCell>
        <mxCell id="SJAbhvmzXAdhwkTG5RAE-49" style="edgeStyle=orthogonalEdgeStyle;rounded=0;orthogonalLoop=1;jettySize=auto;html=1;entryX=0.5;entryY=0;entryDx=0;entryDy=0;" edge="1" parent="WIyWlLk6GJQsqaUBKTNV-1" source="SJAbhvmzXAdhwkTG5RAE-21" target="SJAbhvmzXAdhwkTG5RAE-48">
          <mxGeometry relative="1" as="geometry" />
        </mxCell>
        <mxCell id="SJAbhvmzXAdhwkTG5RAE-21" value="Mapping from names to &lt;font face=&quot;NewComputerModernMono10&quot;&gt;AST&lt;/font&gt;s" style="rounded=1;whiteSpace=wrap;html=1;fontSize=12;glass=0;strokeWidth=1;shadow=0;fontFamily=libertine;" vertex="1" parent="WIyWlLk6GJQsqaUBKTNV-1">
          <mxGeometry x="320" y="470" width="201" height="40" as="geometry" />
        </mxCell>
        <mxCell id="SJAbhvmzXAdhwkTG5RAE-25" value="Parsed into" style="text;html=1;align=center;verticalAlign=middle;whiteSpace=wrap;rounded=0;fontFamily=libertine;" vertex="1" parent="WIyWlLk6GJQsqaUBKTNV-1">
          <mxGeometry x="408" y="140" width="91" height="40" as="geometry" />
        </mxCell>
        <mxCell id="SJAbhvmzXAdhwkTG5RAE-26" value="Used to generate" style="text;html=1;align=center;verticalAlign=middle;whiteSpace=wrap;rounded=0;fontFamily=libertine;" vertex="1" parent="WIyWlLk6GJQsqaUBKTNV-1">
          <mxGeometry x="260" y="192" width="101" height="40" as="geometry" />
        </mxCell>
        <mxCell id="SJAbhvmzXAdhwkTG5RAE-30" value="Used to generate" style="text;html=1;align=center;verticalAlign=middle;whiteSpace=wrap;rounded=0;fontFamily=libertine;" vertex="1" parent="WIyWlLk6GJQsqaUBKTNV-1">
          <mxGeometry x="480" y="192" width="101" height="40" as="geometry" />
        </mxCell>
        <mxCell id="SJAbhvmzXAdhwkTG5RAE-44" style="edgeStyle=orthogonalEdgeStyle;rounded=0;orthogonalLoop=1;jettySize=auto;html=1;" edge="1" parent="WIyWlLk6GJQsqaUBKTNV-1" source="SJAbhvmzXAdhwkTG5RAE-32" target="SJAbhvmzXAdhwkTG5RAE-21">
          <mxGeometry relative="1" as="geometry" />
        </mxCell>
        <mxCell id="SJAbhvmzXAdhwkTG5RAE-32" value="Matching algorithm" style="rhombus;whiteSpace=wrap;html=1;fontFamily=libertine;" vertex="1" parent="WIyWlLk6GJQsqaUBKTNV-1">
          <mxGeometry x="330" y="390" width="181" height="60" as="geometry" />
        </mxCell>
        <mxCell id="SJAbhvmzXAdhwkTG5RAE-35" value="For every pair of&lt;div&gt;(user-inputted statement, inference rule statement)&lt;/div&gt;" style="text;html=1;align=center;verticalAlign=middle;whiteSpace=wrap;rounded=0;fontFamily=libertine;" vertex="1" parent="WIyWlLk6GJQsqaUBKTNV-1">
          <mxGeometry x="257.5" y="310" width="326" height="30" as="geometry" />
        </mxCell>
        <mxCell id="SJAbhvmzXAdhwkTG5RAE-51" style="edgeStyle=orthogonalEdgeStyle;rounded=0;orthogonalLoop=1;jettySize=auto;html=1;entryX=0.5;entryY=0;entryDx=0;entryDy=0;" edge="1" parent="WIyWlLk6GJQsqaUBKTNV-1" source="SJAbhvmzXAdhwkTG5RAE-48" target="SJAbhvmzXAdhwkTG5RAE-50">
          <mxGeometry relative="1" as="geometry" />
        </mxCell>
        <mxCell id="SJAbhvmzXAdhwkTG5RAE-56" style="edgeStyle=orthogonalEdgeStyle;rounded=0;orthogonalLoop=1;jettySize=auto;html=1;entryX=0;entryY=0.5;entryDx=0;entryDy=0;" edge="1" parent="WIyWlLk6GJQsqaUBKTNV-1" source="SJAbhvmzXAdhwkTG5RAE-48" target="SJAbhvmzXAdhwkTG5RAE-54">
          <mxGeometry relative="1" as="geometry" />
        </mxCell>
        <mxCell id="SJAbhvmzXAdhwkTG5RAE-48" value="All names matched?" style="rhombus;whiteSpace=wrap;html=1;fontFamily=libertine;" vertex="1" parent="WIyWlLk6GJQsqaUBKTNV-1">
          <mxGeometry x="330" y="555" width="181" height="60" as="geometry" />
        </mxCell>
        <mxCell id="SJAbhvmzXAdhwkTG5RAE-50" value="Done" style="text;html=1;align=center;verticalAlign=middle;whiteSpace=wrap;rounded=0;fontFamily=libertine;" vertex="1" parent="WIyWlLk6GJQsqaUBKTNV-1">
          <mxGeometry x="390" y="650" width="61" height="30" as="geometry" />
        </mxCell>
        <mxCell id="SJAbhvmzXAdhwkTG5RAE-52" value="Yes" style="text;html=1;align=center;verticalAlign=middle;whiteSpace=wrap;rounded=0;fontFamily=libertine;" vertex="1" parent="WIyWlLk6GJQsqaUBKTNV-1">
          <mxGeometry x="404" y="614" width="61" height="30" as="geometry" />
        </mxCell>
        <mxCell id="SJAbhvmzXAdhwkTG5RAE-53" value="No" style="text;html=1;align=center;verticalAlign=middle;whiteSpace=wrap;rounded=0;fontFamily=libertine;" vertex="1" parent="WIyWlLk6GJQsqaUBKTNV-1">
          <mxGeometry x="504" y="560" width="61" height="30" as="geometry" />
        </mxCell>
        <mxCell id="SJAbhvmzXAdhwkTG5RAE-57" style="edgeStyle=orthogonalEdgeStyle;rounded=0;orthogonalLoop=1;jettySize=auto;html=1;entryX=1;entryY=0.5;entryDx=0;entryDy=0;" edge="1" parent="WIyWlLk6GJQsqaUBKTNV-1" source="SJAbhvmzXAdhwkTG5RAE-54" target="SJAbhvmzXAdhwkTG5RAE-31">
          <mxGeometry relative="1" as="geometry">
            <Array as="points">
              <mxPoint x="800" y="585" />
              <mxPoint x="800" y="415" />
            </Array>
          </mxGeometry>
        </mxCell>
        <mxCell id="SJAbhvmzXAdhwkTG5RAE-54" value="Pick an unmatched name and assign a previously unassigned &lt;font face=&quot;NewComputerModernMono10&quot;&gt;AST&lt;/font&gt;." style="text;html=1;align=center;verticalAlign=middle;whiteSpace=wrap;rounded=0;fontFamily=libertine;spacing=4;" vertex="1" parent="WIyWlLk6GJQsqaUBKTNV-1">
          <mxGeometry x="560" y="565" width="187" height="40" as="geometry" />
        </mxCell>
        <mxCell id="SJAbhvmzXAdhwkTG5RAE-58" value="Is parsed into" style="text;html=1;align=center;verticalAlign=middle;whiteSpace=wrap;rounded=0;fontFamily=libertine;" vertex="1" parent="WIyWlLk6GJQsqaUBKTNV-1">
          <mxGeometry x="84" y="360" width="76" height="40" as="geometry" />
        </mxCell>
        <mxCell id="SJAbhvmzXAdhwkTG5RAE-60" value="Is parsed into" style="text;html=1;align=center;verticalAlign=middle;whiteSpace=wrap;rounded=0;fontFamily=libertine;" vertex="1" parent="WIyWlLk6GJQsqaUBKTNV-1">
          <mxGeometry x="682" y="360" width="76" height="40" as="geometry" />
        </mxCell>
      </root>
    </mxGraphModel>
  </diagram>
</mxfile>
